<svg width="512.0731" height="512.0731" viewBox="0 0 512 512" xml:space="preserve" xmlns="http://www.w3.org/2000/svg"><path fill="currentColor" stroke="currentColor" d="M95.5696 232.2548h80c2.15 0 5.88-.21 7.68 1.02 2.64 1.8 2.11 5.09-.83 6.38-1.63.72-5.01.6-6.85.6h-80c-2.5 0-6.4.34-8.26-1.6-2.78-2.89.28-17.26 1.06-21.4 4.16-21.9 11.37-42.78 22.8-62 24.67-41.46 62.25-70.89 108.4-84.72 10.31-3.09 29.42-7.15 40-7.28 17.08-.2 31.05-.64 48 2.42 48.68 8.8 93.41 37.65 121.25 78.58 12.97 19.06 21.8 39.7 27.38 62 .95 3.82 3.46 14.43 3.14 17.98-.26 2.87-2.38 5.5-5.5 4.36-3.1-1.12-3.36-6.55-3.88-9.34-1.72-9.14-4.09-18.19-7.06-27-8.53-25.37-27.28-55.06-47.33-72.72-15.79-13.9-32.59-25.55-52-33.85-57.68-24.66-125.58-17.14-176 20.47-19.61 14.62-32.4 28.69-45.66 49.1-11.6 17.85-20.14 39.12-24.34 60l29-19c-3.32-4.78-11.81-14.19-6.26-20.35 4.21-4.68 13.02-1.63 18.26-.94l11 1.08c22.69.7592 45.092-1.2763 64-2.75l16-1.04h29c17.79.03 43.43 6.64 60 13.2l55 27.84 24 3.09c10.29 1.48 26.38 5.5 36 9.32 11.72 4.65 31.45 13.6 35.35 26.55.69 2.29.64 4.64.65 7 .02 4.68.45 16.1-.85 20-1.19 3.55-5.59 9.66-7.82 13-2.16 3.24-4.63 7.76-8.37 9.26-2.86 1.15-11.42.68-14.96.74-10.61.2-6.59 5.42-15.18 14.99-6.77 7.53-16.74 11.89-26.82 12.01-10.48.12-20.04-2.78-27.71-10.3-7.76-7.61-7.61-13.37-11.5-15.68-2.07-1.22-5.42-1.02-7.79-1.02h-152c-2.22 0-5.7-.22-7.59 1.02-2.99 1.98-3.32 7.76-10.45 14.94-7.84 7.9-17.02 11.16-27.96 11.04-15.47-.18-32.04-11.25-35-27h-14l9.31 24c7.97 17.36 23.02 38.73 36.69 51.96 48.8 47.23 117.55 63.84 182 42.37 12.9-4.29 25.5-9.7 37-17.02 26.8-17.07 50.74-40.78 65.24-69.31l9.29-19.94c1.25-2.17 3.44-4.52 6.21-2.98 3.67 2.1 1.19 8.01 0 10.92-2.9 7.55-9.33 20.22-13.74 27-22.71 34.89-50.23 59.62-89 75.4-75.78 30.84-161.34 9.29-214.71-52.4-10.14-11.71-20.51-27.9-26.98-42l-11.15-27.73c-1.89-2.46-4.69-3.09-7.12-4.91-9.62-7.21-2.1-14.13-14.04-14.36-2.53-.04-7.64.37-9.68-1.02-1.03-.7-1.69-1.7-1.69-2.98 0-4.49 6.4-3.99 9.37-4h41c9.68-.07 6.71-1.77 17-13h-92c-3.08-.01-8.07.52-9.34-3.13-2.18-6.23 7.93-5.86 11.34-5.87h109c25.3.04 43.42 13.43 44 40h167c.01-11.21 2.2-19.5 10.18-27.91 16.91-17.83 46.32-14.47 59.71 5.91 3.89 5.92 5.79 14.97 6.11 22 3.12 0 12.56.33 14.96-.6 3.26-1.26 5.17-4.64 7.04-7.4 7.49-11.09 6.03-9.73 6-23 0-2.12.09-5-.51-7-2.08-6.95-12.3-13.1-18.49-16.24-16.33-8.29-43.68-15.73-62-15.76h-246c-2.29 0-5.79.2-7.77-1.02-2.93-1.82-3.4-5.63 0-7.24 1.85-.88 5.67-.74 7.77-.74h197c6.77 0 17.84.75 24-1l-28-14.52c-14.84-7.07-30.78-12.55-47-15.4-31.69-5.55-54.1158-2.78-85-.8908-12.9662.903-25.3226 1.0644-36 1.8108h-13l-18-2c4.96 6.55 7.49 9.88 16 10h54c2.96.01 8.84-.64 8.46 3.99-.11 1.29-.71 2.27-1.78 2.99-1.81 1.23-5.52 1.02-7.68 1.02h-53c-2.58 0-5.55-.13-8 .7-2.92.98-16.31 10.51-20 12.97-7.39 4.93-16.97 9.43-20 18.33zm52 30.3c-11.95 2.26-20.76 8.56-24.21 20.7-5.51 19.37 10.54 40.58 31.21 37.56 4.89-.72 9.95-2.3 14-5.2 23.08-16.52 11.58-56.28-21-53.06zm243 0c-7.46 1.41-13.56 3.84-18.67 9.74-15.92 18.36-3.07 46.81 20.67 48.77 3.05.26 7.04-.49 10-1.3 26.08-7.15 28.99-44.98 2-55.58-4.97-1.96-8.77-2.15-14-1.63zm-276 20.7h-28c1.51 12.98 17.27 10 27 10z" style="display:inline"/></svg>