<?xml version="1.0" standalone="no"?>
<!DOCTYPE svg PUBLIC "-//W3C//DTD SVG 20010904//EN"
 "http://www.w3.org/TR/2001/REC-SVG-20010904/DTD/svg10.dtd">
<svg version="1.0" xmlns="http://www.w3.org/2000/svg"
 width="700.000000pt" height="700.000000pt" viewBox="0 0 700.000000 700.000000"
 preserveAspectRatio="xMidYMid meet">
<metadata>
Created by potrace 1.14, written by Peter Selinger 2001-2017
</metadata>
<g transform="translate(0.000000,700.000000) scale(0.100000,-0.100000)"
fill="#000000" stroke="none">
<path d="M3379 6125 c-757 -118 -1380 -513 -1794 -1135 -84 -127 -184 -317
-238 -455 -85 -214 -167 -555 -170 -703 -3 -134 -69 -122 672 -122 685 0 673
-1 679 57 6 65 23 63 -625 63 -321 0 -583 2 -583 5 0 17 33 65 67 96 59 56
449 310 491 320 20 5 231 9 467 9 480 0 479 0 473 63 -5 56 -10 57 -482 57
-415 0 -431 1 -473 21 -36 17 -117 99 -98 99 3 0 68 -7 143 -16 151 -17 253
-14 917 27 725 46 1095 1 1529 -186 119 -51 453 -222 461 -236 4 -5 -20 -9
-57 -9 -35 0 -720 0 -1523 0 -987 0 -1472 -3 -1497 -10 -61 -17 -73 -64 -27
-106 20 -18 77 -19 1843 -24 l1821 -6 120 -27 c404 -92 710 -238 774 -370 18
-37 21 -62 21 -165 0 -140 -4 -155 -79 -266 -69 -102 -76 -106 -191 -106 l-96
0 -17 90 c-21 113 -61 200 -121 267 -165 183 -427 229 -651 116 -73 -38 -175
-145 -213 -223 -30 -65 -52 -155 -52 -217 l0 -33 -1135 0 -1134 0 -6 38 c-17
109 -32 163 -62 223 -43 87 -129 169 -225 214 -138 66 -122 65 -1061 65 -954
0 -911 3 -905 -68 2 -27 9 -40 28 -49 19 -10 174 -13 683 -13 361 0 657 -2
657 -5 0 -11 -112 -144 -128 -151 -9 -5 -182 -11 -384 -14 -225 -3 -371 -9
-376 -15 -21 -22 -22 -52 -3 -76 16 -20 29 -24 113 -29 54 -3 102 -10 110 -18
9 -7 25 -39 37 -72 22 -61 50 -91 121 -131 45 -26 45 -25 140 -264 82 -205
139 -317 249 -484 373 -563 971 -964 1642 -1101 289 -59 649 -65 929 -16 280
49 511 125 763 253 389 197 708 488 980 893 78 116 194 340 227 439 24 73 21
104 -15 127 -45 29 -66 3 -174 -219 -112 -228 -199 -365 -334 -523 -391 -456
-906 -747 -1497 -844 -164 -27 -429 -36 -590 -21 -522 51 -987 251 -1394 601
-165 141 -301 300 -441 515 -106 162 -147 242 -215 420 -35 88 -65 166 -67
173 -4 9 17 12 83 12 l89 0 13 -42 c31 -101 134 -213 245 -268 166 -81 371
-73 518 21 64 41 152 135 183 197 15 29 36 62 46 72 20 20 40 20 1140 20 784
0 1126 -3 1143 -11 13 -6 41 -41 62 -77 106 -184 256 -274 460 -275 212 -2
367 87 466 268 22 41 46 78 52 82 7 4 71 10 142 13 94 5 139 11 162 23 21 11
58 55 107 130 111 165 110 163 110 362 l1 170 -30 53 c-57 105 -183 198 -386
288 -195 86 -404 139 -710 179 l-192 25 -383 195 c-314 159 -409 202 -522 239
-158 51 -325 90 -474 111 -159 23 -562 20 -897 -7 -366 -29 -847 -32 -996 -6
-114 20 -156 14 -195 -27 -44 -47 -28 -124 47 -228 20 -26 34 -49 32 -51 -16
-13 -361 -236 -366 -236 -17 0 52 241 113 393 290 722 924 1281 1663 1467 717
180 1449 41 2036 -387 348 -255 579 -530 770 -918 102 -207 162 -387 210 -635
21 -103 36 -130 73 -130 84 1 86 74 11 357 -165 629 -535 1145 -1074 1499
-332 218 -727 362 -1107 403 -136 15 -563 12 -669 -4z m-1163 -2746 c158 -59
250 -206 242 -387 -5 -117 -38 -192 -119 -266 -82 -77 -146 -100 -274 -101
-88 0 -107 3 -157 27 -76 35 -147 108 -189 193 -32 65 -34 76 -34 170 0 128
25 196 99 270 115 114 281 150 432 94z m3312 3 c111 -43 202 -138 238 -250 25
-78 16 -209 -18 -284 -37 -80 -107 -151 -187 -191 -61 -30 -73 -32 -166 -32
-91 0 -106 3 -165 31 -202 96 -292 343 -194 536 89 176 307 260 492 190z
m-3974 -319 c-3 -32 -8 -59 -9 -61 -9 -11 -170 -12 -219 -2 -62 13 -119 55
-131 98 l-6 22 186 0 186 0 -7 -57z"/>
</g>
</svg>
